<svg xmlns="http://www.w3.org/2000/svg" width="1104" height="431" viewBox="0 0 1104 431" fill="none">
<g clip-path="url(#clip0_157_10)">
<path d="M401.389 68.0006L388.232 26.8445L353.731 5.82227L298.362 42.056L263.861 26.8445L203.022 17.7521L199.504 17.2216L199.391 17.234L139.028 28.6333L104.539 43.8448L45.9656 7.167L14.6444 28.1892L0.123047 68.4448L1.93822 115.412L29.629 155.692L4.66724 219.203L27.3632 320.736L198.49 430.338L368.716 320.28L391.412 218.746L366.45 155.223L394.141 114.943L401.389 68.0006ZM231.626 385.616L203.034 391.427L174.893 386.949L147.202 358.771L166.268 366.802L191.229 365.482L203.034 358.327L215.29 364.137L240.277 365.482L259.342 357.426L231.626 385.616ZM240.264 357.883L205.751 350.888V341.474L241.604 333.258L253.421 308.658L241.604 319.391L228.447 316.813L203.034 317.158H178.073L164.916 320.736L153.111 310.003L164.916 334.603L200.769 341.758V351.147L166.268 359.215L147.202 356.982L131.767 321.624L130.402 297.024L155.364 248.269L176.696 236.635L204.386 233.057L229.348 236.635L252.044 247.368L277.482 295.68L276.117 320.28L260.682 355.613L240.264 357.883ZM382.323 222.336L357.362 313.136L285.644 355.625L264.312 362.793L279.747 321.624V293.447H308.339L329.671 274.657L331.035 233.501L317.879 220.535L289.286 181.624L257.064 193.258L252.057 195.491L248.426 238.88L227.095 231.725L202.133 229.492L174.442 231.725L154.012 238.88L150.382 194.146L145.387 191.913L113.165 180.279L84.5724 219.19L71.4155 233.501L72.78 274.657L94.1115 293.447H122.704V321.624L138.139 362.793L116.807 355.625L45.0767 313.136L20.115 222.336L42.8234 162.403L110.911 54.1339L142.232 37.5776L199.417 25.3887L262.096 36.8374L291.577 54.1339L359.665 162.403L382.323 222.336Z" fill="#ffffff"/>
</g>
<path d="M531.686 82.0981C533.27 80.7856 534.629 80.7083 535.76 81.867C536.893 83.0249 536.478 84.6465 534.515 86.732C531.497 89.5123 528.026 91.3658 524.103 92.2926C520.178 93.1421 516.217 93.6051 512.218 93.6824C500.144 93.9916 490.108 90.3227 482.109 82.6774C474.111 74.9548 470.111 64.4905 470.111 51.2847C470.111 38.0016 475.13 26.6106 485.165 17.1116C495.201 7.61274 508.822 2.86328 526.027 2.86328C536.44 3.09496 545.193 5.7593 552.286 10.8563C559.38 15.9533 564.926 21.977 568.925 28.9274C569.453 30.0086 570.246 30.2403 571.302 29.6225L620.313 3.55832C622.501 2.55437 624.085 2.70882 625.066 4.02169C626.047 5.25732 625.783 6.49295 624.274 7.72859C618.916 11.6672 618.199 17.1503 622.124 24.1779C626.123 31.1284 632.612 38.3105 641.592 45.7243C659.476 60.8608 667.927 76.2676 666.946 91.9444C666.04 107.621 660.494 122.643 650.307 137.007C638.687 153.147 627.217 163.843 615.898 169.095C604.579 174.423 591.11 172.647 575.49 163.766C574.886 163.38 574.283 163.341 573.678 163.65C573.151 163.959 572.848 164.422 572.773 165.04C571.642 174.771 569.679 182.918 566.887 189.483C564.171 196.047 559.983 202.07 554.324 207.554C553.267 208.558 552.286 208.712 551.381 208.017C550.475 207.322 550.4 206.318 551.154 205.005C556.964 192.572 558.889 175.929 556.927 155.078C556.927 154.383 556.549 153.881 555.795 153.572C540.703 147.548 529.422 148.243 521.952 155.657C520.669 156.97 519.424 157.202 518.216 156.352C517.085 155.426 517.047 154.229 518.103 152.761C529.875 137.084 541.345 128.782 552.513 127.855C553.116 127.778 553.531 127.585 553.758 127.276C554.059 126.967 554.21 126.465 554.21 125.77C553.305 115.808 552.362 105.884 551.381 95.9989C550.475 86.0371 549.57 76.0745 548.664 66.1123C547.533 54.8371 543.797 45.1065 537.459 36.9204C531.12 28.6571 523.235 24.4482 513.802 24.2938C503.691 23.7532 495.164 26.3017 488.222 31.9392C481.279 37.4997 477.808 45.3382 477.808 55.4549C477.808 65.5717 480.978 73.5647 487.316 79.4341C493.73 85.3032 502.257 88.2381 512.897 88.2381C520.518 88.3927 526.781 86.3455 531.686 82.0981ZM572.773 37.3838C574.056 40.9362 574.924 44.4887 575.377 48.0411C575.905 51.5936 576.244 54.953 576.395 58.1192C576.848 74.5687 576.735 88.5082 576.056 99.9379C575.452 111.368 575.037 121.831 574.811 131.33C574.811 132.257 575.15 132.836 575.829 133.068C579.527 134.767 583.564 136.929 587.941 139.555C603.259 148.591 615.407 152.182 624.387 150.329C633.442 148.475 640.686 143.147 646.119 134.343C658.041 115.036 650.609 94.3 623.821 72.136C614.691 64.7222 606.994 57.5787 600.731 50.7054C594.543 43.8322 591.223 36.6115 590.77 29.0433C590.77 28.1165 590.468 27.5373 589.865 27.3057C589.261 27.074 588.657 27.1126 588.054 27.4215L573.678 35.067C572.623 35.6075 572.321 36.3799 572.773 37.3838ZM733.727 152.761C729.878 155.773 725.653 159.094 721.049 162.724C716.447 166.276 712.183 169.558 708.26 172.57C706.902 173.651 705.807 174.114 704.977 173.96C704.222 173.806 703.921 173.11 704.071 171.875C704.071 170.253 701.732 167.164 697.054 162.607C684.754 150.792 678.83 135.424 679.283 116.503C679.736 100.285 687.093 86.5774 701.355 75.3795C705.731 71.9815 709.807 68.3905 713.579 64.6063C717.428 60.8222 720.824 56.2272 723.766 50.8213C724.974 48.4272 726.634 48.35 728.746 50.5897C740.216 63.8727 751.686 71.7113 763.156 74.1053C766.781 74.8003 767.155 76.2676 764.288 78.5073C760.741 81.1331 758.817 84.3764 758.515 88.2381V88.4692L758.855 141.409C758.855 144.961 760.1 147.394 762.59 148.706C765.155 150.02 767.91 149.016 770.856 145.695C771.985 144.382 773.04 144.073 774.019 144.768C775.081 145.386 775.119 146.544 774.132 148.243C771.417 152.413 768.777 156.506 766.213 160.523C763.722 164.538 761.609 168.708 759.873 173.033L759.76 173.149C758.704 174.925 757.421 174.925 755.912 173.149C755.082 172.222 754.101 171.605 752.969 171.296C744.366 169.365 738.933 163.534 736.67 153.804C736.519 153.34 736.142 152.877 735.537 152.413C734.859 152.336 734.255 152.452 733.727 152.761ZM734.972 84.531C730.293 83.2177 724.823 79.5114 718.559 73.4102C715.541 69.7034 713.127 69.3559 711.316 72.3677C703.317 84.5692 700.185 98.0453 701.921 112.796C704.336 133.879 711.58 146.892 723.653 151.834C723.729 151.834 723.804 151.873 723.88 151.95C726.973 152.955 730.708 151.062 735.085 146.274C735.387 145.811 735.537 145.386 735.537 145C735.463 143.841 735.425 142.027 735.425 139.555L736.443 86.3845C736.443 85.4577 735.953 84.8402 734.972 84.531ZM825.294 127.276C825.219 139.71 827.485 146.892 832.084 148.823C832.615 149.208 832.876 149.749 832.876 150.444C832.876 151.062 832.615 151.526 832.084 151.834C825.294 157.086 819.79 164.075 815.566 172.802C815.109 173.419 814.541 173.728 813.861 173.728C813.188 173.728 812.619 173.419 812.163 172.802C807.938 164.075 802.203 157.125 794.964 151.95C794.508 151.641 794.284 151.139 794.284 150.444C794.284 149.749 794.546 149.208 795.077 148.823C799.982 146.892 802.435 139.71 802.435 127.276V88.8174C802.435 80.9402 800.999 76.1132 798.128 74.3369C794.807 72.0974 792.093 72.9083 789.984 76.7697C789.154 78.391 788.205 78.7775 787.15 77.928C786.096 77.0785 786.133 75.727 787.262 73.8736C789.453 70.3211 791.525 66.6915 793.491 62.9846C795.525 59.2777 797.604 55.5708 799.713 51.8639C800.924 49.6243 802.622 49.1609 804.813 50.4738L804.925 50.5897C816.014 56.3044 822.654 63.2935 824.845 71.5568C824.995 72.4063 825.369 72.9083 825.975 73.0627C826.58 73.2172 827.186 73.0627 827.784 72.5993C831.934 69.0469 836.197 65.3014 840.579 61.3628C844.953 57.4242 847.937 53.7946 849.522 50.4738C850.352 48.4659 851.705 48.5045 853.59 50.5897C858.121 55.4549 861.972 59.3163 865.135 62.1737C868.381 65.0311 873.854 67.1549 881.549 68.5449C882.91 68.8538 883.59 69.4716 883.59 70.3984C883.665 71.2479 883.209 71.8271 882.229 72.136C880.27 72.9083 878.535 74.2597 877.025 76.1904C875.514 78.0436 874.759 81.1713 874.759 85.5733V134.574C874.759 142.452 876.195 147.278 879.059 149.054C882.379 151.139 885.056 150.29 887.097 146.505C887.927 145.038 888.87 144.729 889.924 145.579C891.061 146.352 891.061 147.664 889.924 149.518C887.666 153.147 885.512 156.815 883.478 160.523C881.512 164.152 879.515 167.782 877.474 171.411C876.12 173.574 874.423 174.076 872.381 172.917C858.652 166.121 851.78 156.043 851.78 142.683L851.892 83.3723C851.892 81.0558 851.331 79.5497 850.195 78.8548H850.083V78.6229L840.466 70.5142C839.636 69.8964 838.769 69.8578 837.857 70.3984L826.087 79.7816C825.563 80.1673 825.294 80.631 825.294 81.1713V127.276ZM926.146 7.72859C920.186 9.42761 917.278 13.0186 917.435 18.5018C917.509 21.977 919.431 25.2206 923.207 28.2324C927.051 31.167 931.545 33.1363 936.675 34.1402C936.749 34.1402 936.824 34.1789 936.899 34.2561C952.744 40.2798 966.518 48.157 978.213 57.8876C989.983 67.6182 996.661 81.7507 998.246 100.285V100.633C996.661 114.534 993.378 126.118 988.398 135.385C983.418 144.653 977.533 151.719 970.743 156.584L970.631 156.815C967.461 159.596 963.722 162.067 959.422 164.23C955.122 166.392 951.309 168.632 947.989 170.948C945.88 172.415 944.519 172.415 943.921 170.948C939.688 160.677 928.03 152.838 908.94 147.432C907.811 147.201 907.205 146.622 907.13 145.695C907.056 144.768 907.474 144.112 908.379 143.726C913.127 141.872 915.505 136.736 915.505 128.319L915.281 80.129C915.281 77.426 916.485 76.1518 918.9 76.3063C926.445 77.3104 933.998 74.6845 941.543 68.4291C941.991 68.1202 942.216 67.541 942.216 66.6915C942.066 66.0736 941.692 65.6103 941.087 65.3014C938.223 64.0657 935.351 62.8687 932.487 61.7103C929.616 60.4747 926.827 59.1618 924.112 57.7717C917.091 54.5282 911.886 50.3193 908.491 45.1451C905.171 39.9709 903.204 34.8353 902.606 29.7383V29.1591C904.491 14.4087 911.737 6.18404 924.336 4.48505C926.296 4.17614 927.357 4.56228 927.507 5.64345C927.731 6.72463 927.275 7.41968 926.146 7.72859ZM948.22 68.5449C947.54 68.236 946.897 68.3132 946.291 68.7766L940.974 73.0627C939.464 74.2211 938.709 75.6112 938.709 77.233L939.165 134.458C939.165 135.617 939.613 136.427 940.518 136.891L964.97 151.603C966.93 152.838 968.747 152.375 970.407 150.212C977.196 140.404 979.799 127.392 978.213 111.174C976.703 94.8793 970.175 82.5619 958.629 74.2211C956.521 72.7538 953.051 70.8617 948.22 68.5449ZM1062.65 152.761C1058.8 155.773 1054.58 159.094 1049.98 162.724C1045.37 166.276 1041.11 169.558 1037.18 172.57C1035.83 173.651 1034.73 174.114 1033.9 173.96C1033.14 173.806 1032.85 173.11 1033 171.875C1033 170.253 1030.65 167.164 1025.98 162.607C1013.68 150.792 1007.76 135.424 1008.21 116.503C1008.66 100.285 1016.02 86.5774 1030.28 75.3795C1034.66 71.9815 1038.73 68.3905 1042.51 64.6063C1046.35 60.8222 1049.75 56.2272 1052.69 50.8213C1053.9 48.4272 1055.56 48.35 1057.67 50.5897C1069.14 63.8727 1080.61 71.7113 1092.08 74.1053C1095.7 74.8003 1096.08 76.2676 1093.21 78.5073C1089.67 81.1331 1087.74 84.3764 1087.44 88.2381V88.4692L1087.78 141.409C1087.78 144.961 1089.03 147.394 1091.52 148.706C1094.08 150.02 1096.83 149.016 1099.78 145.695C1100.91 144.382 1101.96 144.073 1102.95 144.768C1104 145.386 1104.04 146.544 1103.06 148.243C1100.34 152.413 1097.7 156.506 1095.14 160.523C1092.65 164.538 1090.54 168.708 1088.8 173.033L1088.68 173.149C1087.63 174.925 1086.35 174.925 1084.84 173.149C1084.01 172.222 1083.03 171.605 1081.89 171.296C1073.29 169.365 1067.86 163.534 1065.6 153.804C1065.44 153.34 1065.07 152.877 1064.46 152.413C1063.78 152.336 1063.18 152.452 1062.65 152.761ZM1063.89 84.531C1059.22 83.2177 1053.75 79.5114 1047.49 73.4102C1044.47 69.7034 1042.05 69.3559 1040.24 72.3677C1032.24 84.5692 1029.11 98.0453 1030.85 112.796C1033.26 133.879 1040.5 146.892 1052.58 151.834C1052.65 151.834 1052.73 151.873 1052.8 151.95C1055.9 152.955 1059.63 151.062 1064.01 146.274C1064.31 145.811 1064.46 145.386 1064.46 145C1064.39 143.841 1064.35 142.027 1064.35 139.555L1065.37 86.3845C1065.37 85.4577 1064.88 84.8402 1063.89 84.531ZM530.441 342.276C530.592 337.952 529.573 335.287 527.385 334.284C525.272 333.202 520.744 333.472 513.802 335.094C503.087 337.72 493.504 335.287 485.053 327.796C476.601 320.306 472.376 309.146 472.376 294.318C472.451 279.568 477.695 266.825 488.109 256.091C498.522 245.356 510.973 239.989 525.461 239.989C532.025 239.989 539.156 241.649 546.853 244.971C554.55 248.291 561.115 253.234 566.548 259.798C567.001 260.416 567.491 260.686 568.019 260.609C568.547 260.531 569 260.184 569.377 259.566C572.698 254.006 576.961 249.334 582.168 245.549C587.45 241.766 594.43 239.989 603.108 240.22C614.351 240.761 624.425 247.867 633.329 261.535C633.781 262.23 634.347 262.578 635.026 262.578C635.706 262.578 636.234 262.192 636.612 261.42C639.781 255.396 643.78 250.453 648.609 246.592C653.439 242.731 659.476 240.8 666.719 240.8C676.001 240.954 683.66 243.85 689.697 249.488C695.734 255.125 700.11 264.586 702.826 277.869C704.486 287.059 707.957 291.925 713.24 292.465C714.749 292.542 715.541 293.199 715.617 294.434C715.768 295.67 714.862 296.597 712.9 297.214C698.261 302.311 688.187 310.498 682.679 321.773C677.17 332.97 677.397 347.258 683.358 364.634C685.999 372.511 689.772 378.071 694.677 381.315C699.657 384.481 705.09 384.211 710.976 380.504C713.164 379.191 714.787 379.229 715.843 380.619C716.975 381.933 716.786 383.245 715.277 384.558C710.146 388.728 705.052 392.898 699.997 397.069C695.016 401.162 689.998 405.255 684.943 409.348C684.112 409.966 683.321 409.966 682.566 409.348C666.493 396.143 656.796 381.47 653.476 365.329C650.232 349.189 660.645 330.075 684.717 307.987C685.245 307.447 685.471 306.906 685.396 306.366C685.396 305.825 685.056 305.362 684.376 304.976C679.095 301.346 675.209 292.04 672.719 277.058C670.078 262.23 664.192 254.74 655.061 254.585C648.572 254.43 643.063 259.296 638.536 269.181C638.234 269.722 638.234 270.262 638.536 270.802C641.478 277.213 643.591 284.356 644.874 292.233C646.233 300.11 646.308 308.451 645.1 317.255C642.082 338.569 637.592 354.671 631.631 365.561C625.745 376.372 618.728 387.184 610.578 397.996C599.788 411.82 589.601 413.325 580.017 402.514C577.301 399.424 574.433 397.417 571.415 396.49C568.472 395.563 565.076 396.645 561.228 399.733C559.795 400.969 558.55 401.123 557.493 400.197C556.512 399.193 556.587 397.957 557.72 396.49C567.378 382.744 575.037 374.905 580.696 372.974C586.431 371.043 592.015 372.666 597.448 377.84C601.9 382.087 605.975 384.365 609.672 384.674C613.446 384.983 616.388 382.125 618.501 376.102C622.576 364.517 624.01 348.338 622.803 327.564C621.671 306.713 617.558 290.728 610.465 279.606C603.447 268.486 596.732 261.96 590.317 260.029C583.979 258.022 578.206 259.721 573 265.126C572.245 265.899 572.208 266.71 572.887 267.559C581.866 280.301 586.696 295.052 587.375 311.81C587.827 325.557 585.224 338.762 579.564 351.428C573.905 364.016 566.623 376.102 557.72 387.686C547.985 400.351 538.741 407.61 529.988 409.464C521.311 411.318 513.35 406.799 506.105 395.911C499.767 386.18 493.315 384.983 486.75 392.32C485.165 393.71 483.732 393.748 482.449 392.435C481.242 391.122 481.43 389.617 483.015 387.918C503.615 366.448 519.802 363.63 531.573 379.461C533.46 382.087 535.233 384.52 536.893 386.759C538.628 388.998 541.194 390.042 544.589 389.887C548.966 389.732 553.569 384.828 558.399 375.175C563.228 365.522 565.642 353.359 565.642 338.686C565.491 319.456 560.587 302.62 550.928 288.178C541.269 273.66 530.214 265.706 517.764 264.316C505.313 263.003 495.503 265.397 488.335 271.498C481.166 277.599 477.695 284.82 477.922 293.16C478.148 301.655 480.336 308.451 484.487 313.548C488.712 318.645 496.485 319.687 507.804 316.676C529.611 310.961 539.081 319.185 536.214 341.35C535.912 343.666 534.855 344.863 533.045 344.94C531.309 344.94 530.441 344.053 530.441 342.276ZM761.571 409.58C761.42 407.726 760.439 406.336 758.628 405.41C756.892 404.483 755.422 403.556 754.214 402.629C745.536 396.606 739.386 389.269 735.764 380.619C732.217 371.893 730.218 362.665 729.765 352.934C728.86 330.924 734.67 314.166 747.196 302.659C751.648 298.566 756.779 295.245 762.59 292.697C768.404 290.071 774.363 287.947 780.473 286.326C782.357 285.939 783.755 286.904 784.66 289.222L800.962 328.376C801.717 330.46 801.448 331.774 800.169 332.314H799.945L753.535 350.733C752.629 351.196 752.252 351.93 752.403 352.934C756.1 370.078 762.288 381.083 770.968 385.948C779.643 390.737 788.287 391.431 796.886 388.033C798.397 387.339 799.339 387.454 799.713 388.381C800.169 389.308 799.907 390.003 798.92 390.466C792.811 393.632 786.963 396.876 781.377 400.197C775.874 403.518 770.931 406.993 766.549 410.623C765.869 411.086 764.854 411.24 763.495 411.086C762.213 410.931 761.571 410.429 761.571 409.58ZM751.045 344.13C751.12 344.748 751.384 345.25 751.837 345.636C752.29 345.945 752.856 345.945 753.535 345.636L777.646 336.368C778.775 335.905 779.112 335.094 778.663 333.936L764.854 299.3C764.174 297.601 762.816 297.369 760.779 298.605C756.402 301.231 753.421 307.215 751.837 316.559C750.252 325.904 749.988 335.094 751.045 344.13ZM836.279 244.971C830.312 246.67 827.41 250.26 827.56 255.744C827.635 259.219 829.556 262.462 833.333 265.474C837.184 268.409 841.67 270.378 846.8 271.382C846.875 271.382 846.95 271.421 847.032 271.498C862.877 277.522 876.644 285.399 888.339 295.13C900.116 304.86 906.794 318.992 908.379 337.527V337.874C906.794 351.775 903.511 363.36 898.531 372.627C893.551 381.894 887.666 388.96 880.869 393.825L880.756 394.057C877.586 396.837 873.854 399.309 869.555 401.471C865.255 403.633 861.441 405.873 858.121 408.19C856.005 409.657 854.652 409.657 854.046 408.19C849.821 397.919 838.163 390.08 819.073 384.674C817.936 384.443 817.338 383.863 817.263 382.937C817.181 382.01 817.6 381.353 818.504 380.967C823.26 379.114 825.638 373.978 825.638 365.561L825.406 317.371C825.406 314.668 826.618 313.393 829.033 313.548C836.578 314.552 844.123 311.926 851.668 305.671C852.124 305.362 852.348 304.782 852.348 303.933C852.199 303.315 851.818 302.852 851.219 302.543C848.348 301.307 845.484 300.11 842.612 298.952C839.748 297.716 836.952 296.404 834.237 295.013C827.223 291.77 822.011 287.561 818.616 282.387C815.296 277.213 813.337 272.077 812.732 266.98V266.4C814.616 251.65 821.862 243.425 834.462 241.727C836.428 241.418 837.483 241.804 837.632 242.885C837.857 243.967 837.408 244.661 836.279 244.971ZM858.346 305.786C857.665 305.478 857.029 305.555 856.424 306.018L851.1 310.305C849.597 311.463 848.841 312.853 848.841 314.475L849.29 371.7C849.29 372.858 849.746 373.669 850.651 374.133L875.096 388.845C877.062 390.08 878.872 389.617 880.532 387.454C887.322 377.646 889.924 364.634 888.339 348.416C886.836 332.121 880.308 319.804 868.762 311.463C866.646 309.996 863.176 308.104 858.346 305.786ZM931.014 379.114L930.221 315.633C930.221 314.166 929.997 312.969 929.541 312.042C927.731 309.03 926.184 308.297 924.905 309.841L920.373 314.59C919.169 315.981 917.995 316.135 916.866 315.054C915.812 313.973 915.999 312.467 917.435 310.536C920.755 306.288 923.731 302.041 926.37 297.794C929.018 293.546 931.732 289.337 934.521 285.167C935.733 283.7 937.123 283.738 938.709 285.283C941.879 289.222 944.975 292.697 947.989 295.708C951.01 298.643 955.309 301.771 960.895 305.091C962.48 305.709 963.161 306.443 962.936 307.292C962.779 308.142 962.293 308.606 961.463 308.682C959.497 309.455 957.762 310.807 956.251 312.737C954.748 314.59 953.993 317.718 953.993 322.12V371.12C953.993 378.998 955.421 383.824 958.293 385.601C961.613 387.609 964.327 386.759 966.444 383.052C967.199 381.585 968.104 381.276 969.158 382.125C970.287 382.898 970.287 384.211 969.158 386.064C966.892 389.694 964.784 393.362 962.817 397.069C960.858 400.698 958.861 404.328 956.82 407.958C955.384 410.121 953.612 410.584 951.503 409.348C944.713 406.027 939.576 401.973 936.106 397.185C932.712 392.396 931.014 386.373 931.014 379.114ZM947.428 241.611C955.803 241.611 959.616 245.743 958.861 254.006C958.405 258.176 955.84 262.385 951.159 266.632C946.56 270.802 942.896 272.85 940.182 272.772C937.467 272.772 935.389 270.571 933.96 266.169C932.525 261.767 931.956 257.713 932.255 254.006C932.487 250.453 934.147 247.519 937.236 245.202C940.406 242.808 943.801 241.611 947.428 241.611ZM1036.17 390.003C1032.31 393.015 1028.09 396.335 1023.49 399.965C1018.88 403.518 1014.62 406.799 1010.7 409.811C1009.34 410.893 1008.24 411.356 1007.41 411.201C1006.66 411.047 1006.36 410.352 1006.51 409.117C1006.51 407.495 1004.17 404.405 999.495 399.849C987.194 388.033 981.272 372.666 981.72 353.744C982.177 337.527 989.535 323.819 1003.79 312.621C1008.17 309.223 1012.24 305.632 1016.02 301.848C1019.86 298.064 1023.26 293.469 1026.21 288.063C1027.41 285.669 1029.07 285.592 1031.19 287.831C1042.66 301.114 1054.13 308.953 1065.6 311.347C1069.22 312.042 1069.59 313.509 1066.73 315.749C1063.18 318.375 1061.25 321.618 1060.95 325.48V325.711L1061.29 378.65C1061.29 382.203 1062.54 384.636 1065.03 385.948C1067.59 387.261 1070.35 386.257 1073.29 382.937C1074.42 381.623 1075.48 381.315 1076.46 382.01C1077.52 382.627 1077.56 383.786 1076.58 385.485C1073.85 389.655 1071.21 393.748 1068.65 397.764C1066.16 401.78 1064.05 405.95 1062.32 410.274L1062.2 410.391C1061.14 412.167 1059.86 412.167 1058.35 410.391C1057.52 409.464 1056.54 408.846 1055.41 408.537C1046.81 406.606 1041.37 400.776 1039.11 391.046C1038.95 390.582 1038.58 390.119 1037.98 389.655C1037.29 389.578 1036.7 389.694 1036.17 390.003ZM1037.41 321.773C1032.73 320.459 1027.26 316.753 1021 310.652C1017.98 306.945 1015.56 306.598 1013.76 309.609C1005.75 321.811 1002.62 335.287 1004.36 350.038C1006.77 371.12 1014.02 384.133 1026.09 389.076C1026.17 389.076 1026.24 389.115 1026.32 389.192C1029.41 390.196 1033.14 388.304 1037.53 383.516C1037.83 383.052 1037.98 382.627 1037.98 382.242C1037.9 381.083 1037.86 379.269 1037.86 376.797L1038.88 323.626C1038.88 322.699 1038.39 322.082 1037.41 321.773Z" fill="#ffffff"/>
<defs fill="#ffffff">
<clipPath id="clip0_157_10" fill="#ffffff">
<rect width="401.266" height="424.528" fill="#000000" transform="translate(0.123047 5.82227)"/>
</clipPath>
</defs>
</svg>