<?xml version="1.0" encoding="UTF-8"?>
<svg id="_Слой_1" xmlns="http://www.w3.org/2000/svg" xmlns:xlink="http://www.w3.org/1999/xlink" version="1.1" viewBox="0 0 2296.1 1080">
  <!-- Generator: Adobe Illustrator 29.1.0, SVG Export Plug-In . SVG Version: 2.1.0 Build 142)  -->
  <defs>
    <style>
      .st0 {
        fill: url(#_Безымянный_градиент_311);
      }

      .st1 {
        fill: url(#_Безымянный_градиент_312);
      }

      .st2 {
        fill: #fff;
      }

      .st3 {
        fill: url(#_Безымянный_градиент_31);
      }

      .st4 {
        fill: #cd0000;
      }
    </style>
    <linearGradient id="_Безымянный_градиент_31" data-name="Безымянный градиент 31" x1="1029.4" y1="291.6" x2="1167.1" y2="576.5" gradientUnits="userSpaceOnUse">
      <stop offset="0" stop-color="#b80000"/>
      <stop offset=".4" stop-color="#b50000"/>
      <stop offset=".6" stop-color="#ad0000"/>
      <stop offset=".8" stop-color="#9e0000"/>
      <stop offset=".9" stop-color="#8a0000"/>
      <stop offset="1" stop-color="maroon"/>
    </linearGradient>
    <linearGradient id="_Безымянный_градиент_311" data-name="Безымянный градиент 31" x1="753.3" y1="292.1" x2="889.6" y2="571.4" xlink:href="#_Безымянный_градиент_31"/>
    <linearGradient id="_Безымянный_градиент_312" data-name="Безымянный градиент 31" x1="1393.8" y1="529.7" x2="1591.1" y2="332.4" xlink:href="#_Безымянный_градиент_31"/>
  </defs>
  <g>
    <path class="st2" d="M222.1,829.5l-37.4-109.2h22.6l27.1,82.1,26.5-82.1h23.2l26.5,82.1,27.1-82.1h22.5l-37.3,109.2h-24.8l-25.7-78.2-25.7,78.2h-24.6Z"/>
    <path class="st2" d="M375.8,829.5v-109.2h22v109.2h-22Z"/>
    <path class="st2" d="M421,829.5v-109.2h22v88.6h64.7v20.6h-86.7Z"/>
    <path class="st2" d="M527.1,829.5v-109.2h46.5c39.2,0,56,16.4,56,54.6s-16.8,54.6-56,54.6h-46.5ZM549.1,808.9h23.7c24.5,0,34.9-10.1,34.9-34s-10.5-34-34.9-34h-23.7v68Z"/>
    <path class="st2" d="M722.2,829.5l-37.4-109.2h22.6l27.1,82.1,26.5-82.1h23.2l26.5,82.1,27.1-82.1h22.5l-37.3,109.2h-24.8l-25.7-78.2-25.7,78.2h-24.6Z"/>
    <path class="st2" d="M875.9,829.5v-109.2h22v109.2h-22Z"/>
    <path class="st2" d="M921.1,829.5v-109.2h22v88.6h64.7v20.6h-86.7Z"/>
    <path class="st2" d="M1027.2,829.5v-109.2h46.5c39.2,0,56,16.4,56,54.6s-16.8,54.6-56,54.6h-46.5ZM1049.2,808.9h23.7c24.5,0,34.9-10.1,34.9-34s-10.5-34-34.9-34h-23.7v68Z"/>
    <path class="st2" d="M1192.7,829.5v-109.2h55.5c27,0,38.5,10.9,38.5,36.5s-11.5,36.7-38.5,36.7h-33.5v36h-22ZM1214.7,772.9h32.3c12.5,0,17.9-4.8,17.9-16.1s-5.5-15.9-17.9-15.9h-32.3v32Z"/>
    <path class="st2" d="M1309.6,829.5h-23.2l49.1-109.2h24.6l49.1,109.2h-23.2l-8.9-20h-58.7l-8.9,20ZM1347.8,743.4l-20.1,45.6h40.2l-20.1-45.6Z"/>
    <path class="st2" d="M1446.7,829.5h-22v-109.2h58.5c26.8,0,38.4,9.7,38.4,32.6s-4.4,22.9-13.1,28.1c8,3.9,11.9,11.4,11.9,22.2v26.4h-21.8v-25.4c0-8.7-5-12.5-16.7-12.5h-35.1v37.9ZM1446.7,771.2h35.1c12.6,0,17.9-4.7,17.9-15.3s-5.3-15-17.9-15h-35.1v30.3Z"/>
    <path class="st2" d="M1534.7,740.9v-20.6h106.9v20.6h-42.4v88.6h-22v-88.6h-42.4Z"/>
    <path class="st2" d="M1658.2,720.3h22l64,77.1v-77.1h21.8v109.2h-21.8l-64-77.1v77.1h-22v-109.2Z"/>
    <path class="st2" d="M1880.5,829.5h-91.1v-109.2h91.1v20.6h-69.1v24.3h61.3v19.3h-61.3v24.3h69.1v20.6Z"/>
    <path class="st2" d="M1923.1,829.5h-22v-109.2h58.5c26.8,0,38.4,9.7,38.4,32.6s-4.4,22.9-13.1,28.1c8,3.9,11.9,11.4,11.9,22.2v26.4h-21.8v-25.4c0-8.7-5-12.5-16.7-12.5h-35.1v37.9ZM1923.1,771.2h35.1c12.6,0,17.9-4.7,17.9-15.3s-5.3-15-17.9-15h-35.1v30.3Z"/>
    <path class="st2" d="M2035.6,796.5c2.7,9.5,11.5,13.9,29.5,13.9s24.8-3.7,24.8-11.1-7.6-10.9-29.5-14.7c-17.5-3.1-29.5-7-35.9-11.9-6.6-4.7-9.8-11.7-9.8-21.2,0-22.3,14.7-32.4,46-32.4s45.2,10,48.5,34.5h-22.9c-2-9.8-10.3-14-27-14s-23.2,3.6-23.2,10.8,2,5.8,6.1,7.8c3.9,2,11.2,3.9,21.8,5.9,18.1,3.3,30.6,7.3,37.3,12.2,6.7,4.8,10.1,12,10.1,21.5,0,22.5-15.4,33.2-48.4,33.2s-46.6-10.1-49.9-34.5h22.5Z"/>
  </g>
  <g>
    <path class="st3" d="M1178.5,461.7l-37.1,76.3c-.5,1-.9,2-1.4,3-5.8,10.8-17.2,18-30.3,18s-24.5-7.3-30.3-18l-36.6-75.3,70.9-145.8,66.9,137.6h0c0,0-2,4.1-2,4.1Z"/>
    <path class="st0" d="M904.9,457.6l-39.1,80.4c-.5,1-.9,2-1.4,3-1.1,2.1-2.5,4.1-4,5.8-.9,1.1-1.9,2.2-3,3.1-1.3,1.1-2.6,2.2-4.1,3.1-.7.5-1.4.9-2.1,1.3-1.2.7-2.4,1.3-3.6,1.8,0,0,0,0,0,0-2.1,1.1-5.8,2.1-8.1,2.4s-3.6.4-5.5.4-3.7-.2-5.5-.4c-2.3-.3-6-1.3-8.1-2.4,0,0,0,0,0,0-1.2-.5-2.4-1-3.6-1.8-.7-.4-1.4-.9-2.1-1.3-1.4-.9-2.8-2-4.1-3.1-1-1-2-2-3-3.1-1.5-1.8-2.9-3.7-4-5.8-.5-1-1-2-1.4-3l-106-218h126.8c9.1,0,17.4,5.2,21.4,13.4l60.4,124.2Z"/>
    <path class="st4" d="M1113.5,319.9l-70.9,145.8-56.2,115.5c-6.6,13.5-20.3,22.1-35.4,22.1h-92.4c-15.1,0-28.9-8.6-35.4-22.1l-19.6-40.3c1.1,2.1,2.5,4.1,4,5.8.9,1.1,1.9,2.2,3,3.1,1.3,1.1,2.6,2.2,4.1,3.1.7.5,1.4.9,2.1,1.3,1.2.7,2.4,1.3,3.6,1.8.6.3,1.2.5,1.8.7,2.2.9,4.6,1.4,7,1.8,1.6.2,3.2.3,4.9.3s3.3-.1,4.9-.3c2.4-.3,4.7-.9,7-1.8.6-.2,1.2-.5,1.8-.7,1.2-.5,2.4-1,3.6-1.8.7-.4,1.4-.9,2.1-1.3,1.4-.9,2.8-2,4.1-3.1,1-1,2-2,3-3.1,1.5-1.8,2.9-3.7,4-5.8.5-1,1-2,1.4-3l39.1-80.4,66.9-137.7h141.7Z"/>
    <path class="st1" d="M1588.5,443.3c-17.7,30-30.7,48.3-103.3,52,0,0,0,0-.1,0-5,.6-10.1.8-15.5.8h-102.2l30.4-62.5c7.3-14.9,22.5-24.4,39.1-24.4h47.4c57.6,0,53.8-88.5,2.9-88.5,42.2-33.5,42.2-13.1,42.2-13.1l59.1,13.1c19.2,37.1,20,88.9.1,122.6Z"/>
    <path class="st4" d="M1588.4,320.7h-174.3c-1.4,0-4.7.2-6,.4-13.5,1.4-23.4,8.8-29.3,21.1l-58.1,119.5-34.4,70.9-23.7,48.7c-6.6,13.5-20.3,22.1-35.4,22.1h-92.4c-15.1,0-28.9-8.6-35.4-22.1l-6.5-13.3-13-27c5.8,10.8,17.2,18,30.3,18s24.5-7.3,30.3-18c.5-1,1-2,1.4-3l39.1-80.5,66.9-137.6c10.5-21.7,26.8-39.4,46.4-51.7,19.7-12.3,42.7-19.1,66.8-19.1h13.7s89.2,0,89.2,0c70.6,0,102.9,35.6,124.3,71.6Z"/>
  </g>
</svg>