<?xml version="1.0" encoding="UTF-8"?>
<svg id="_Шар_2" data-name="Шар 2" xmlns="http://www.w3.org/2000/svg" viewBox="0 0 507.79 100.2">
  <defs>
    <style>
      .cls-1 {
        fill: #fff;
        stroke-width: 0px;
      }
    </style>
  </defs>
  <g id="_Шар_1-2" data-name="Шар 1">
    <g>
      <path class="cls-1" d="m21.53,98.15l-1.78-.14-1.78.14-2.06-.27-1.65.14-1.1-.14h-1.23l-1.92-.27-.82-.14h-1.1l-.96.14H3.02l-1.92-.27-1.1-.27v-3.15l.14-1.23.69-1.65.27-1.92.14-.82.41-1.92.27-1.37.27-1.1v-1.1l.27-1.92.14-1.1.27-1.51.55-1.1.27-1.37v-1.1l.41-1.92.27-1.1.14-1.78.14-.82.55-.96v-3.02l.41-1.92.14-1.1.41-1.92.14-.96.27-1.78.27-.96.41-1.65.14-.82.55-1.65v-2.74l.27-.96.27-.82.41-1.92.27-.82.69-3.84.41-.96.27-.96.14-.96v-.82l.14-.96.27-1.65.14-.96.41-1.65v-.82l.27-1.65.55-1.65v-1.92l.14-1.1.27-2.88.27-1.65.69-2.47.27-.96v-.82l.14-.96.41-1.78.27-1.92.27-1.65.41-.82.14-.96.14-1.65.27-.96.41-1.37.27-.41.41-1.51,1.37-.41h.96l1.65.14.96.14,2.19-.27h1.1l3.02.14,2.74-.14h3.43l1.51.14.82-.14h2.19l1.1.14,1.23.14,2.06.27h.96l1.1.41,1.92.55h.27l.82.27,2.33.69.69.41.55.27,1.37.82.96.69.82.69,2.06,2.74,1.1,1.65.55.69.69,1.23.55,1.92.82,2.06.55.96.41,2.33v.96l.69,1.92-.14.96.27,2.74.14,1.78-.41.82.41,1.92.14.82-.14.96.27.96-.14.96v.82l-.41,2.19v.96l-.27,2.33-.14.96v3.84l-.69,2.19v.96l-.55,2.61-.27,2.06-.27,3.15-.27,1.1-.41,1.1-.14,1.37-.82,2.88-.14,1.78-.27,1.65-.41.96-.96,1.78-.27.82-.14,1.51-.82,1.78-.14.82-.55,1.92-.96,1.92-.96,2.74-.69,1.37-1.1,1.1-.14.82-.69.96-.69.82-.96,1.65-1.92,2.33-1.92,1.51-1.23,1.1-.82.55-1.78.82-1.51.41-1.37.96-1.92.55-1.37.27-2.19.27-1.51.55h-4.25l-.96.14h-.69l-.96.14-3.15-.14Zm6.72-18.51l1.37-.41,1.1-.55,1.51-.82.69-.55,1.1-1.1.96-1.1.41-.82.55-.96.55-1.37.69-1.37.69-1.78.82-2.61.41-1.51.41-1.92.55-1.78.14-.82.27-.69.27-.82.41-1.65.14-.96.27-1.78.27-1.92.27-2.06.14-.96.27-1.1.69-1.92v-1.92l.41-2.88.14-.82.27-2.88-.14-2.88.14-3.98-.27-3.7-.14-1.1-.82-2.33-.96-1.78-.82-.69-.69-.55-2.33-.69-2.19-.27-1.78-.14-1.23.14-.41,1.1-.41.96v.82l-.27.96-.41,2.06-.55,1.92-.27,1.78-.27,1.92-.27,3.02-.14.82-.27.96v.96l-.14,1.1-.41.82v.82l-.41,1.92-.27,2.19v.96l-.41,1.92-.27.82-.41,1.92v.82l-.41,1.92-.27.96.14.82-.27.96-.55,3.56v1.78l-.14.82-.69,1.92v.82l-.41,2.06-.55,2.47-.14.96-.55,1.92-.27,2.06-.14,2.06-.41,2.33-.27,1.23,1.92.55h4.11Z"/>
      <path class="cls-1" d="m86.5,97.87h-17.28l-1.65-.41-1.78.41h-.96l-.96.14-.96-.14h-1.92l-1.51-.14-1.1-.14-.69-1.37-.41-1.23.41-2.88.14-.82v-3.15l.41-1.51.41-1.78,1.92-2.88.82-1.37.55-.82.27-.69.55-.69.82-1.37,1.37-2.33.69-1.37.69-1.65.55-1.1.55-.82.41-.96.96-1.65.55-.69.27-.82,2.88-4.39.96-1.78,1.1-1.51.27-.69.69-1.92.69-1.23,1.37-2.33,3.98-6.99.82-1.65.41-.69.69-1.65.41-.82,1.23-1.37.27-.82,1.23-2.33.82-1.37.41-.82.82-1.51.55-.82.82-1.65.41-.69.55-1.23.82-.96.41-.82,1.1-1.65,1.23-2.06v-1.23l-1.1-.27-1.65.14h-9.19l-2.19-.14h-1.1l-2.19-.14-2.61.14-1.1-.14-1.1.14-1.92-.14-.41-.96.27-.69v-1.78l.14-.96.27-.82v-.82l.14-.96.41-1.78.14-.82.27-.96.14-.82v-.96l.55-1.78.55-2.19.82-1.37.82-.41h5.76l2.33.27h13.44l1.23.27h6.44l4.39-.27,1.1.14,2.06.14.96-.14h.82l1.92.27,1.1.14.82.41.82.55.27,2.33.14,1.1-.41,1.23-.14,1.23v1.78l-.27,1.78-.14,1.1-.27,1.37v1.37l-.14.96-.82,1.65-1.65,3.43-.41,1.65-.41.96-.41.69-1.1,1.65-.27.82-.82,1.51-.41.82-.14.96-.69,1.1-.27.82-2.06,4.11-1.1,1.65-.27.82-.55.69-1.37,2.47-.41.82-.55.82-.27.82-.82,1.78-.55.96-.27.82-.55.82-.41.82-.41,1.23-.69,1.1-.55.82-.69.69-.41.82-.55.82-.41.82-.55.82-.41.82-.27.82-.69.82-.27.82-1.37,2.47-1.23,2.47-.96,1.65-.55.82-1.1,1.51-.27.82-.96,1.65-.41.82-.41.96-.82,1.65-.55.82-.55,1.23.96.41,3.02.27.96.14h2.88l.96-.27.96.27h.96l1.92.14h1.1l2.06-.14h.96l.96.14,2.06.14.96.14h2.61l1.23.69v1.78l-.41,2.47v.96l-.27.82v.82l-.27.96-.14,1.65-.27,1.78-.27.96-.14.82-.27.82-.14.96-.27,1.1-.14.96-1.37.14h-17l-.96.41-1.23-.41Z"/>
      <path class="cls-1" d="m127.63,98.15h-3.98l-1.92-.27h-1.1l-.96.14-1.51-.14-.96-.14-1.1.14-1.1-.27-1.1-.96-.14-2.06.69-1.92.14-2.06.27-.96.27-1.92.14-1.1.41-2.06.14-.96.27-1.1.14-.96.55-1.78-.14-.82.41-2.47.41-1.51.27-1.23.41-1.23.27-1.23.27-1.65v-.96l.27-.96.14-.82.27-.96-.14-.96.96-3.02.27-2.06v-.82l.27-.96.14-.96.14-.82.27-1.92v-1.92l.55-1.92v-.96l.27-1.92.55-1.1v-1.78l.27-1.65.41-1.78.69-1.92.41-2.88v-1.92l.41-.96.27-1.92.14-.82-.14-.96.55-1.65.14-.82.41-1.78.14-.96.55-1.78-.14-.96.14-1.1.14-1.78.27-.69.27-1.92.41-1.78.14-.82.27-.82.14-1.65.27-1.51.55-1.51.27-2.06.27-.82.14-.96.96-1.37.96-.41.82-.55.96-.14,2.06-.14,1.23.14h1.92l.96-.14h7.27l.96-.14,1.51.41.55,1.37-.14.82v1.78l-.27.41-.14,1.51.14.82-.41.55v1.23l-.41.69-.27,1.92-.55,1.23v1.1l-.14.82v.96l-.14.82-.69,3.56-.27,1.51-.27.82-.27,1.65-.14.96-.14,1.65-.14.96-.27,1.78-.41,1.65-.41,1.78-.14.69-.41,1.92-.41,1.23v1.23l-.14.96-.14,1.1v.96l-.27,1.78-.41,1.37-.69,4.11-.55,1.92-.41.96v1.1l-.41,1.78-.27,1.78-.27,1.65-.55,1.92v1.1l-.55,1.92v1.1l-.27,1.92-.14.69v1.92l-.69,1.37.14,1.51-.41,2.06-.14,1.1-.55,1.78v1.1l-.41,1.92-.27,1.92-.27,1.78v.96l-.41,1.51-.55,3.29-.41,1.78-.27,1.92-.41,1.78-.14,1.1-.41,1.23-1.51.41h-3.56l-.96-.14Z"/>
      <path class="cls-1" d="m342.13,99.52l-.96-.14h-1.37l-1.51-.27-1.37-.27-.96-.27-2.19-.96-1.51-.55-1.37-.96-1.65-1.1-1.37-1.78-1.37-1.65-1.23-1.92-.96-2.33-.27-1.1-.96-2.47-.14-.82-.41-1.92-.14-.82-.27-2.19v-4.11l.14-2.33-.14-.96.27-2.06.14-1.1.27-.96.41-2.19,1.92-.96,3.29-.27,1.65.14h7.68l1.78.14,1.1,1.92v5.07l-.14.96v2.88l.27,3.02.41,1.37.96,2.06,1.37,1.37,1.78.41h1.23l1.1-.27,1.51-.41.69-.69.69-1.23.55-.96.55-1.65.27-1.65.14-1.37v-.96l-.14-1.92v-2.19l-.55-2.47v-.82l-.41-2.06-1.1-1.92-1.1-1.65-.96-1.92-.55-.82-.27-.69-.41-.69-.96-.96-.69-1.1-1.51-1.78-.69-.69-.55-.82-1.51-1.78-1.65-1.78-1.23-1.78-1.37-1.51-1.37-1.1-.69-.96-.82-1.37-.82-2.06-.55-1.23-.69-.96-.41-.96-.27-1.1-.55-1.78-.14-1.78-.14-1.1.14-.96v-3.98l.27-2.74.41-.96.14-1.92.55-.96.41-1.37.14-1.37.82-1.78.55-1.1.41-.96.41-.69,1.1-1.23.41-.55.82-1.37.82-.82,1.65-1.37,2.47-1.78,2.19-.82,1.51-.82,2.6-.55,2.33-.69h4.25l3.43.14h.96l1.23.27,2.06.14,2.33.69.96.14.55.41,1.65.82.96.82,1.1.41,1.51,1.37.41.55,1.37,1.51.41.69.96,1.51.55.82.27,1.51.41.96.82,3.29v3.02l.14,2.74-.14,2.33-.55,3.84-.55,3.02-1.65.82-2.47.14h-7.68l-1.92-.14h-1.92l-1.1-.96-.14-1.78.27-1.1.41-4.25v-3.15l-.27-1.65-.41-.82-1.23-1.23-1.37-1.1-1.78-.27-1.65.55-1.51.69-.69.96-.41.96-.55,1.37-.14.96-.41,1.37-.14,1.92v1.78l.14.96.96,2.61,1.1,1.92.55,1.1.96,1.78,1.51,1.92,1.78,2.19.55.82.69.69.55,1.1.55.69.82.55,1.37,1.1.41.82.69.41.41.69,1.23,1.37.69,1.23,1.65,1.65.96,2.33,1.23,1.51.14.69,1.1,2.74.82,1.78.82,2.88.14.96.14,1.1.14.96.69,2.33.27.82-.14,1.92-.14.82.14.96-.14.96v3.84l-.41,1.92-.14.82v2.06l-.55,1.78-.27,1.1-.27,1.23-.69,1.92-1.23,2.33-.82.55-.69,1.37-.69.55-1.1,1.23-.69.55-1.1.96-1.37.82-1.23.96-1.65.41-.82.55-2.06.69-1.1.14-1.78.55-.96.14-1.23-.14-.96.14h-1.51l-.96.14-1.51.14-3.29-.27Z"/>
      <path class="cls-1" d="m374.32,97.19l.14-2.06v-.96l.41-.96-.14-.96.41-1.78.14-.82.55-1.78v-.96l.14-1.1v-.96l.41-1.78v-.69l.27-2.47.41-.96.14-1.92.27-.82v-.82l.55-1.78v-.96l.69-2.88.41-1.92.27-2.06.55-3.84.41-1.92.27-1.1.41-2.06.55-2.06.14-1.92.14-.96.27-2.06.55-2.74.41-1.92.14-1.1.14-.96.41-2.19.41-1.92.14-1.51.14-1.92.41-.82v-.82l.27-.96.14-1.78.41-.82.27-1.92-.14-.96.41-1.65.27-.96v-.82l.27-.96v-.82l.14-1.92.27-.82.14-1.1.55-3.57.55-1.78v-1.78l.41-1.51v-1.78l.27-1.65.41-2.6.41-1.23.55-.41h1.23l.96-.27,1.92.14h3.43l1.92.14,2.61-.14h.96l2.06.14h2.06l1.1.55.41.96-.27,1.37-.27,2.33-.14,1.92-.41,2.33-.41,2.06-.14.96-.27,2.74-.27,1.1-.27,1.23-.14,1.37-.27.96v.96l-.27.82-.69,3.7-.41,1.65-.41,2.47.27.96,1.37-1.37.82-1.65,1.51-1.78.82-1.23.82-1.1,1.1-.96.69-1.37.27-.69,1.1-1.37.96-1.37,1.1-1.23.69-1.23,1.37-2.06,1.23-1.51.27-.96.82-1.1,1.51-2.06,1.23-1.78,1.51-2.06.82-.82.41-1.1,1.1-1.51,1.37-.41,2.47.14h4.25l1.37.14.69-.14h2.61l1.92-.27,2.74.27,1.23-.14,1.65.41.41.96-1.1,1.65-.41.96-1.1,1.37-1.23,1.51-.69.96-.69.69-.14.82-.55.69-.96,1.37-.55.96-.69,1.37-1.1,1.23-.55.82-.82.82-.55,1.1-1.1,1.23-.55,1.37-.82.96-.69.96-1.37,1.65-.82,1.23-.82,1.1-2.06,3.02-.96,1.37-1.23,1.65-1.51,2.33-.96,1.23-.69,1.23-.96,1.51-2.47,3.29-1.37,2.74.27,1.37.69,2.19.27,1.37.69,1.65.41,1.65,1.1,3.84.27,1.1.55,1.78.69,1.51.55,1.23.14,1.1.41,1.1.14.82.55,1.23.14.96.69,1.51.55,1.65.27.96,1.1,1.65.14.96v.82l.55.96.55,1.78v.82l1.1,1.65.14,1.23.14.96.41.82v1.1l.41.96.41.69.14,1.1.41,1.51.96,1.65.55,1.51.82,2.33.27.69-.14,1.23-3.15.14h-3.43l-4.25-.14-1.23.14h-2.88l-.96-.14-3.02.14-1.65-.27-.55-.82-.41-1.78-1.23-3.29-1.1-3.84-.55-1.65-.55-1.1-.41-1.78-.27-.96-.27-.82-.69-1.92-.55-1.92-.55-1.65-.82-1.78-.27-1.78-.14-.82-.41-.96-.69-1.51v-.96l-.69-1.51-.14-1.1-.41-1.23-.41-1.1-1.23-3.56-.82-2.06h-.41l-.14.82-.27,1.1-.14.96-.27.82-.27,2.88-.27,1.78-.27,1.65-.14.96v.82l-.41,1.92-.27,1.1-.14,1.92-.14,1.1-.14,1.78-.41.96-.27.82-.27,2.88-.41,2.19-.41,1.65-.27.82-.14.96-.14,1.78-.55,1.92-.55,1.51v1.65l-.69,2.74-1.51.55h-3.56l-1.23.14-1.65-.14-1.92.14h-.82l-.41-.14-.96.14h-2.61l-1.23-.14-1.37.14-1.1-.82Z"/>
      <path class="cls-1" d="m455.69,97.87h-2.06l-1.51-.82-.14-1.78.27-1.65.27-1.78-.14-.82.27-.96.14-.82.14-.96.27-.82v-1.51l.41-1.23.69-3.02.14-1.51.27-1.78.41-.96.27-2.06.41-1.92.41-1.1v-1.37l.41-2.19.55-1.78.14-.82v-.96l.55-1.51.14-1.65.69-2.33-.14-1.65-.41-1.37-.14-1.23.14-1.1-.27-.96-.27-2.06-.41-2.06v-1.1l-.41-.96-.27-1.92.14-.82-.41-2.06-.41-2.47-.14-.96-.41-1.65-.55-1.78-.27-1.78v-.96l-.41-2.19-.69-2.06-.14-1.1-.27-3.43-.27-1.1.14-1.65-.41-.96-.27-2.06v-.96l-.55-1.92-.55-4.11-.14-1.78-.14-.82-.27-1.92-.14-1.78v-1.37l.41-1.1.69-.27,1.1-.14,3.57-.14,1.92.14,1.37-.14.96.14,1.51-.27,3.7.14h2.06l1.51,1.65.41,1.37v3.15l.41,1.1v1.37l.55,1.1.27,3.84-.14.82.41,1.92.27.96.55,1.37-.14,1.37.14,1.78.41,1.37v1.23l.27,1.65.55,3.57.14,2.06.55.14.41-.69.27-.82.27-.69.82-1.65.55-.96.14-.82,1.1-1.65.69-1.65.82-1.51,1.37-3.29.82-1.78.55-.82.14-.96,1.1-1.78.27-.82.27-.96,1.23-2.74.82-1.92.69-1.78.41-.82.82-1.37,1.37-1.78.96-.55,4.52-.27,2.06.27,2.19-.14h3.56l1.51.27,2.74-.14,1.51.82v1.78l-.41,1.78-.27.69-1.1,1.51-.27.82-.82,1.65-.55.82-.14.96-.82,1.65-.55.69-.55,1.65-1.1,1.51-.27.96-.55.82-.27.82-1.23,2.61-.82.82-.82,1.92-1.1,1.65-.14.82-.55.82-.27.82-1.37,2.33-.69,1.78-.41.96-.27.82-.96,1.65-.27.69-.69.82-.14.82-1.37,1.78-.55.82-.55.96-.82,1.78-.82,1.37-1.1,2.47-1.1,1.65-.82,1.78-.82.82-.41.69-.41.82-.96,1.65-.55,1.65-.55.69-.27,1.1-.41.69-.69.69-.27,1.37v.96l-.55,1.78-.41,1.51-.27,1.37-.27,1.65-.27.82.14.82-.41,1.78-.41,1.92-.55,2.06-.55,1.92-.14.96-.41,1.37-.27.96v.82l-.27,1.92-.41,2.06-.27.96-.55,2.06-.41,1.92-.41,2.47-.69,2.88h-4.94l-1.1-.14-.82.14h-1.23l-2.06-.14-.82.14h-2.88l-.96-.14Z"/>
      <g>
        <path class="cls-1" d="m140.9,97.18l.14-2.06v-.96l.41-.96-.14-.96.41-1.78.14-.82.55-1.78v-.96l.14-1.1v-.96l.41-1.78v-.69l.27-2.47.41-.96.14-1.92.27-.82v-.82l.55-1.78v-.96l.69-2.88.41-1.92.27-2.06.55-3.84.41-1.92.27-1.1.41-2.06.55-2.06.14-1.92.14-.96.27-2.06.55-2.75.41-1.92.14-1.1.14-.96.41-2.2.41-1.92.14-1.51.14-1.92.41-.82v-.82l.27-.96.14-1.78.41-.82.27-1.92-.14-.96.41-1.65.27-.96v-.82l.27-.96v-.82l.14-1.92.27-.82.14-1.1.55-3.57.55-1.78v-1.78l.41-1.51v-1.78l.27-1.65.41-2.61.41-1.24.55-.41h1.24l.96-.27,1.92.14h3.43l1.92.14,2.61-.14h.96l2.06.14h2.06l1.1.55.41.96-.27,1.37-.27,2.33-.14,1.92-.41,2.33-.41,2.06-.14.96-.27,2.75-.27,1.1-.27,1.24-.14,1.37-.27.96v.96l-.27.82-.69,3.71-.41,1.65-.41,2.47.27.96,1.37-1.37.82-1.65,1.51-1.78.82-1.24.82-1.1,1.1-.96.69-1.37.27-.69,1.1-1.37.96-1.37,1.1-1.24.69-1.24,1.37-2.06,1.24-1.51.27-.96.82-1.1,1.51-2.06,1.24-1.78,1.51-2.06.82-.82.41-1.1,1.1-1.51,1.37-.41,2.47.14h4.26l1.37.14.69-.14h2.61l1.92-.27,2.75.27,1.24-.14,1.65.41.41.96-1.1,1.65-.41.96-1.1,1.37-1.24,1.51-.69.96-.69.69-.14.82-.55.69-.96,1.37-.55.96-.69,1.37-1.1,1.24-.55.82-.82.82-.55,1.1-1.1,1.24-.55,1.37-.82.96-.69.96-1.37,1.65-.82,1.24-.82,1.1-2.06,3.02-.96,1.37-1.24,1.65-1.51,2.33-.96,1.24-.69,1.24-.96,1.51-2.47,3.29-1.37,2.75.27,1.37.69,2.2.27,1.37.69,1.65.41,1.65,1.1,3.84.27,1.1.55,1.78.69,1.51.55,1.24.14,1.1.41,1.1.14.82.55,1.24.14.96.69,1.51.55,1.65.27.96,1.1,1.65.14.96v.82l.55.96.55,1.78v.82l1.1,1.65.14,1.24.14.96.41.82v1.1l.41.96.41.69.14,1.1.41,1.51.96,1.65.55,1.51.82,2.33.27.69-.14,1.24-3.16.14h-3.43l-4.26-.14-1.24.14h-2.88l-.96-.14-3.02.14-1.65-.27-.55-.82-.41-1.78-1.24-3.29-1.1-3.84-.55-1.65-.55-1.1-.41-1.78-.27-.96-.27-.82-.69-1.92-.55-1.92-.55-1.65-.82-1.78-.27-1.78-.14-.82-.41-.96-.69-1.51v-.96l-.69-1.51-.14-1.1-.41-1.24-.41-1.1-1.24-3.57-.82-2.06h-.41l-.14.82-.27,1.1-.14.96-.27.82-.27,2.88-.27,1.78-.27,1.65-.14.96v.82l-.41,1.92-.27,1.1-.14,1.92-.14,1.1-.14,1.78-.41.96-.27.82-.27,2.88-.41,2.2-.41,1.65-.27.82-.14.96-.14,1.78-.55,1.92-.55,1.51v1.65l-.69,2.75-1.51.55h-3.57l-1.24.14-1.65-.14-1.92.14h-.82l-.41-.14-.96.14h-2.61l-1.24-.14-1.37.14-1.1-.82Z"/>
        <path class="cls-1" d="m223.76,99.79l-1.78.14-.96-.14-1.24-.14-3.16-.96-1.1-.14-2.06-.55-.96-.55-1.92-1.24-2.47-2.06-1.92-2.2-.41-.69-.69-.69-.41-.82-.69-.96-1.1-1.78v-.82l-.41-.96-.14-.82-.27-.69-.27-.82-.14-.96-.27-.82-.14-1.92-.14-.82-.41-2.75.27-.96v-2.61l.41-1.37-.14-1.1v-.96l.27-3.02.55-1.92v-1.1l.27-1.92v-.96l.55-1.92-.27-.69.27-1.78.27-.96.41-2.47.41-1.65v-1.78l.41-1.65v-.96l.41-.82.27-.96v-.82l.27-.96-.14-.82.82-1.37.27-.96v-1.92l.27-1.65.41-.96.14-.82.27-1.92.55-3.43.69-.96.27-1.78.82-1.78.41-.96.55-1.65.69-1.92.82-1.65.55-.96,1.24-1.78.14-.96.55-.82,1.1-1.78,1.1-1.65.96-.69.69-.82,1.92-2.06,1.78-1.24,1.1-.41.96-.69,1.65-.96,1.65-.82,2.06-.55.82-.14,2.06-.55,1.37-.14,2.47-.41,1.92-.14,1.65-.14,2.47.14.82.14,1.51.14,2.2.27,1.1.41,1.1.14.82.27,2.06.96,2.47,1.65,1.1.69.69.82,1.51,1.24,1.51,1.37.69.82.41.96.82,1.78.41.82.27.82.27.96.41,2.06.27,2.61.14,1.1v.96l-.14,1.78-.14.82.14,1.78v.96l-.14,1.78-.27.96-.14.82.14.96v1.37l-.14.82-.27,1.92-.14,2.06-.14,2.2-.27.96-.27,2.2.14,1.37-.69,1.51.14,1.65-.55,1.78-.27,1.78-.41,1.78-.14,1.65-.41,1.78-.41.82-.41,2.47v1.24l-.27.96-.27,1.92-.41.82-1.37,4.8.14.82-.69,1.65-.41.82-.14,1.51-.69,1.51-.41,1.65v.96l-.41,1.51-.69.96-.14,1.37-.96,1.92-1.1,2.47-.69.96-1.24,1.78-.55.82-.69.82-.27.82-1.65,1.65-.82.69-.69.82-1.65,1.24-1.65,1.1-.55.41-3.16,1.24-.96.14-1.1.27-1.92.41-.96.14-1.51.41-3.02.41-3.57-.41Zm4.26-18.26l1.92-.55,1.24-.55,1.92-1.37.96-1.92.82-1.92.27-.96v-1.1l.41-2.06.27-.96.27-1.92.41-1.1.14-1.92.41-.96.41-1.78.14-1.1.41-.82v-1.1l-.14-.41.41-1.24.41-2.06.27-3.16.41-1.24.41-1.1.27-2.61.41-.82-.14-2.33.55-2.06.27-1.65.27-1.1.27-.96-.14-.96.14-1.78.27-1.1.41-1.92.27-1.24v-1.78l.27-2.47.14-1.78.27-1.92-.55-2.75-.55-.82-.96-1.24-2.2-.96-2.61.14-1.1.27-2.2.82-1.37,1.24-.96,1.51-.55,1.65-.55.96-.82,1.78-.27.96-.27,1.1-.82,2.88v.27l-.14,1.1-.41,1.92-.14.82-.55,1.92-.41,1.92-.41,2.2-.14.96-.27.96-.27,2.06-.41,1.1-.55,2.2-.27.96-.27,1.92v.96l-.14.96.14,1.1-.41.96-.69,1.92.14,1.1-.27.96.14.55-.27,1.24v1.1l-.27.96v1.1l-.41,2.06v.96l-.41.96.41.96-.14,1.65-.55,1.37.41.96v3.84l.41.96.27.55.82,1.24.69.69,1.1.41,1.1.27.82.14h1.78Z"/>
        <path class="cls-1" d="m280.91,97.87h-3.02l-1.1-.14h-3.02l-1.37.14h-.27l-1.65-.69-.41-1.51-.27-1.37.14-1.51-.14-.82-.14-.96v-.96l-.27-1.78v-2.06l.14-.96v-2.06l-.14-1.1v-2.47l.14-.96v-.96l-.27-.96v-1.92l.14-.96v-1.92l-.14-.96.14-1.1-.27-.96v-1.92l.14-.96v-1.1l.14-.96v-1.92l-.27-.82.14-.96v-.96l.14-.96-.41-.82.14-.96v-1.78l-.14-.96v-1.78l.27-1.92v-1.1l.14-.96-.27-.96v-2.88l-.14-1.1v-1.78l.14-.82.14-1.78-.27-.96v-1.78l.41-1.78-.27-1.37v-4.39l-.14-1.1-.14-.96.14-.96v-5.9l.14-.82.14-1.92-.14-.96.14-.96-.14-1.92-.14-.82.14-.96v-.96l.14-.82-.14-.96.14-.96-.14-.96.14-.82v-1.37l.41-1.1.41-.55,1.65-.55,1.65.14.96-.14,2.2-.14,1.65.14h8.37l.96.14.96.69.41.96-.14,1.78v.27l.14,1.65v2.75l-.27,1.1v2.06l-.27.96.14.96v1.92l-.14.96v.96l-.14.96v.96l-.14,1.1v.96l.27.96v.96l-.14.96v2.88l-.41,2.47v1.92l-.14,1.24v1.1l-.14.82.41.82-.14,1.78v.69l-.14.96v2.88l-.14,1.1v.96l.14.96v.96l-.14,1.51v1.1l-.14.96-.14.55.14.82-.14,2.06v.96l-.14,1.1-.27,1.65.14,1.51v1.51l-.14,1.24.14.69.41-.14.55-.55.41-.82.27-.82.14-.82.96-1.78.41-1.1.27-.82.41-1.78.69-.96.27-.82.69-1.37.27-.96.14-.82.55-1.37.41-.96.27-.96.55-1.78.27-.96.41-.55.41-.96.55-1.51.27-.82.14-.82.27-.41.27-.96.14-.82.82-1.65.27-.69.55-.69.55-1.24.41-1.78.27-.96,1.24-2.88.14-.82.41-.96.41-1.92.14-.82.41-.96.41-.82.27-.82,1.1-1.78.14-.96.27-.82.14-.96.55-1.92.41-.96.82-1.78,2.06-5.63.96-1.78,1.51-.82,1.24-.27,1.51.41,1.1-.27.82.27h.96l.96.14.82-.14h3.29l.96-.14.55.14h1.92l1.51.14h1.78l1.37.41v1.37l-.14.82-.82,1.51-.41,1.1-.14.96-.41.82-.41.96-.14,1.24-.41.82-.55.82-.41.96-.69,1.78-.27.82-.41,1.51-.69.82-.41.82-.27.69-.41.82-.27,1.37-.41.69-.14.82-.41.82-.69,1.51-.69.96-.27.96-.41,1.78-.41.69-.41.82-.27.82-.69,1.78-.41.96-.14,1.1-.96,1.78-.41.69-.69,1.65-.27.96-.69,1.78-.27.96-.82,1.51-.96,1.51-.69,1.65-.27.82-.55.82-.41,1.65-.41.82-.14.82-.69,1.51-.41.82-.55.82-.41.69-.14.82-.82,2.47-.41.82-.55.82v.82l-1.1,1.78-.41.96-.27.96-1.24,1.78-.55,1.92-.69,1.65-1.1,2.47-.55.96-.14.96-.96,1.78-1.37,2.47-.41.82-.41.96-.27.96-.41.96-.69.82-.69,2.06-.41.96-.27.82-.41.82-.27.82-.55.82-.82,1.51-.55.96-.82,1.51-.41,1.24-.69.41h-1.1l-1.24-.27-.96.14-1.1.14h-3.02l-1.51-.14Z"/>
      </g>
    </g>
  </g>
</svg>