<svg width="440" height="221" viewBox="0 0 440 221" fill="none" xmlns="http://www.w3.org/2000/svg">
<mask id="mask0_1814_18" style="mask-type:luminance" maskUnits="userSpaceOnUse" x="7" y="0" width="433" height="107">
<path d="M440 0H7.34082V106.42H440V0Z" fill="white"/>
</mask>
<g mask="url(#mask0_1814_18)">
<path d="M77.7626 37.06C76.2175 35.7483 74.5665 34.5577 72.8096 33.4881C72.8096 33.3468 72.7673 33.2459 72.6191 33.1248C60.1519 21.3193 35.4926 1.50222 10.3253 1.74439C9.8385 1.74439 9.4575 1.98655 9.28816 2.36998C9.0765 2.77359 9.16116 3.17719 9.41516 3.56062C13.7332 8.64608 23.1524 21.4404 23.4699 35.4254C17.8607 39.5624 13.3945 45.0111 10.6005 51.267C8.50499 55.9892 7.34082 61.1756 7.34082 66.6041C7.34082 73.3443 9.14 79.7012 12.2938 85.2508C13.0558 86.6029 13.9025 87.8944 14.8339 89.1456C22.4539 99.4981 35.1751 106.299 49.5685 106.299C49.9284 106.299 50.3094 106.299 50.6692 106.259C53.1034 106.218 55.474 105.976 57.7812 105.532H57.8024C68.7879 103.514 78.2283 97.4599 84.3455 89.085C85.4674 87.5513 86.4834 85.9369 87.3724 84.2619C90.2087 78.9545 91.7962 72.9609 91.7962 66.6041C91.7962 54.8793 86.3775 44.325 77.7626 37.06ZM54.6697 83.2126C53.061 83.6565 51.3465 83.8987 49.5685 83.8987C47.0073 83.8987 44.5732 83.4144 42.3718 82.5062C35.7678 79.8626 31.1534 73.7076 31.1534 66.6041C31.1534 57.0991 39.4085 49.2893 49.5685 49.2893C59.7286 49.2893 67.9836 57.0991 67.9836 66.6041C67.9836 74.4543 62.3532 81.134 54.6697 83.2126Z" fill="white"/>
<path d="M176.866 87.1473L176.802 87.4702C176.167 88.3783 175.257 89.6699 174.749 90.3358C173.966 91.3247 173.14 92.253 172.23 93.1611V93.2216C171.849 93.605 171.278 94.1499 170.939 94.5132L170.749 94.6948C170.368 95.0782 169.987 95.3809 169.606 95.7442C169.33 95.9258 169.14 96.1074 168.886 96.289C168.759 96.4101 168.568 96.5514 168.378 96.6725C162.261 101.576 154.789 104.764 146.745 105.814C146.491 105.814 146.237 105.874 145.92 105.935C145.581 105.935 145.264 105.995 144.946 106.056C144.438 106.056 143.909 106.117 143.401 106.177H140.967C136.776 106.177 132.733 105.612 128.923 104.543C111.482 99.6592 98.7393 84.4431 98.7393 66.4826C98.7393 50.5603 108.73 36.7973 123.145 30.4808C128.563 28.0995 134.596 26.7676 140.967 26.7676H143.401C143.909 26.7676 144.438 26.8483 144.946 26.9089C145.264 26.9089 145.581 26.9694 145.92 27.03C146.174 27.03 146.428 27.0905 146.745 27.151C154.789 28.1802 162.261 31.4495 168.378 36.2928C168.568 36.4138 168.695 36.5349 168.886 36.656C169.076 36.8376 169.33 37.0192 169.606 37.2614C169.987 37.5843 170.368 37.9475 170.749 38.3108C170.812 38.3713 170.876 38.4319 170.939 38.4924C171.341 38.8557 171.722 39.2391 172.103 39.6629C172.103 39.7234 172.23 39.784 172.294 39.8445C173.204 40.7728 173.966 41.6809 174.813 42.6698C175.575 43.6586 176.358 44.6878 177.056 45.7977C177.31 46.2215 177.183 46.8471 176.675 47.0893L165.415 53.2846L158.916 56.8364C158.324 57.1593 157.562 57.018 157.244 56.4731C153.561 51.1455 148.418 48.1386 142.237 48.1386C137.898 48.1386 134.088 49.3696 130.955 51.5088C129.643 52.4169 128.436 53.4864 127.378 54.6973C124.415 57.7647 122.552 61.8815 122.552 66.3615C122.552 70.8416 124.415 74.9382 127.378 78.0056C127.844 78.5303 128.352 79.055 128.881 79.5191C132.352 82.6269 137.072 84.5239 142.237 84.5239C148.227 84.5239 153.498 81.5775 157.244 76.1692C157.625 75.6243 158.324 75.5032 158.916 75.8059L176.421 85.432C177.056 85.7952 177.247 86.5419 176.866 87.1473Z" fill="white"/>
<path d="M262.972 67.0287C262.972 63.2348 262.401 59.4207 261.237 55.8084C260.348 52.9832 259.056 50.2185 257.511 47.5748L256.728 46.3438C256.538 46.1017 256.157 45.4963 256.157 45.4963L255.712 44.8101C255.522 44.4469 255.268 44.1442 254.992 43.7809C254.675 43.3975 254.357 42.9737 254.04 42.6105L253.786 42.3078C253.511 41.9243 253.257 41.6216 252.939 41.3189L252.749 41.0768L252.304 41.44L252.685 40.9557C252.241 40.4713 251.711 39.9668 251.203 39.4825L250.949 39.2403C250.568 38.9376 250.23 38.6148 249.912 38.312L249.785 38.191C249.404 37.8277 248.96 37.4645 248.494 37.081L248.177 36.8389C247.605 36.4151 247.012 35.9913 246.441 35.5473L246.06 35.1841H245.933C245.213 34.7603 244.515 34.2558 243.795 33.7715H243.732C243.033 33.3477 241.869 32.6615 241.17 32.2983C240.98 32.1772 240.578 31.9956 240.578 31.9956L240.26 32.4799L240.514 31.8745H240.387C240.07 31.7534 239.752 31.5718 239.371 31.3095H239.16C238.461 31.0067 237.763 30.704 237.043 30.3408H236.852C236.471 30.1592 236.006 30.0381 235.561 29.8565C235.434 29.7757 235.244 29.6547 235.117 29.6547C234.609 29.473 234.08 29.2914 233.508 29.1098H233.381C232.852 28.9282 232.217 28.8071 231.582 28.6255L231.053 28.5044C229.846 28.242 228.682 27.9999 227.454 27.7577H226.946C225.719 27.5761 224.428 27.5155 223.136 27.3945H218.247C217.802 27.455 217.294 27.5155 216.829 27.5155H216.321C215.622 27.6366 215.029 27.6972 214.458 27.7577H214.331C213.738 27.8788 212.849 27.9999 212.32 28.1815H212.003C211.558 28.242 211.114 28.3833 210.648 28.5044H210.521C210.394 28.6255 210.267 28.6255 210.14 28.6255C209.568 28.8071 208.912 28.9282 208.341 29.1098C207.769 29.2914 207.177 29.473 206.605 29.6547C206.478 29.7152 206.224 29.8565 206.224 29.8565H206.097C205.631 29.9775 205.187 30.1592 204.806 30.3408H204.679C204.552 30.3408 204.404 30.4619 204.277 30.4619C203.769 30.704 203.197 30.9462 202.605 31.1884C202.097 31.4507 201.525 31.7534 200.996 31.9956C200.869 32.0561 200.615 32.2378 200.615 32.2378H200.488C200.107 32.4194 199.726 32.601 199.324 32.8432L198.879 33.1055C198.371 33.4082 197.842 33.7109 197.334 34.0136C192.318 37.2021 188 41.5005 184.846 46.3438C184.528 46.8483 184.274 47.3327 183.957 47.817L183.555 48.5031L183.364 48.8664L183.174 49.2296L183.047 49.5525C182.983 49.6736 182.856 49.7947 182.856 49.9158C182.602 50.4606 182.348 50.945 182.073 51.51C181.628 52.4181 181.247 53.407 180.866 54.5169C179.702 57.887 178.982 61.3782 178.792 64.8896V68.9257C178.855 70.9639 179.131 72.9214 179.575 74.8789C179.702 75.5045 179.829 76.1704 180.02 76.796C180.21 77.5831 180.464 78.3903 180.803 79.2984C181.438 81.0137 182.136 82.6685 182.92 84.2022C182.983 84.3435 183.11 84.5857 183.11 84.5857L183.237 84.8278C183.428 85.2516 183.618 85.6149 183.893 86.0588L184.02 86.2405C184.274 86.6642 184.528 87.0275 184.782 87.4715C187.936 92.3148 192.254 96.6132 197.271 99.8017C197.779 100.105 198.308 100.407 198.816 100.71L199.26 100.952C199.641 101.154 200.043 101.396 200.424 101.638H200.551C200.678 101.699 200.805 101.76 200.932 101.82C201.525 102.123 202.033 102.365 202.541 102.627C203.07 102.869 203.642 103.112 204.213 103.354C204.34 103.414 204.615 103.535 204.615 103.535H204.742C205.187 103.657 205.568 103.838 206.034 104.04H206.161C206.288 104.04 206.415 104.161 206.542 104.161C207.113 104.343 207.706 104.524 208.277 104.706C208.785 104.888 209.441 105.009 210.076 105.19C210.203 105.19 210.457 105.311 210.457 105.311H210.584C211.05 105.432 211.495 105.493 211.939 105.634L212.532 105.755C213.04 105.876 213.548 105.937 214.077 106.058H214.394C214.966 106.179 215.559 106.24 216.257 106.3H216.765C217.231 106.361 217.739 106.421 218.183 106.421H220.702C221.274 106.421 221.845 106.361 222.628 106.361H223.073C224.301 106.3 225.592 106.179 226.883 105.937H227.327C228.492 105.755 229.698 105.574 230.926 105.251L231.455 105.13C232.153 104.948 232.725 104.766 233.318 104.585H233.445C234.016 104.464 234.524 104.282 235.053 104.101L235.561 103.899C236.006 103.717 236.471 103.596 236.916 103.354H237.043C237.678 103.051 238.398 102.748 239.16 102.304H239.371C239.689 102.183 240.006 102.002 240.387 101.76H240.514C240.705 101.638 241.107 101.457 241.107 101.457L241.361 101.336C242.123 100.892 242.97 100.468 243.732 99.9833L243.922 99.8622C244.578 99.4182 245.277 98.9945 245.933 98.5101L246.377 98.1469C246.949 97.7635 247.542 97.3397 248.113 96.8553L247.732 96.4114L248.24 96.7948L248.621 96.4114C249.023 96.1087 249.404 95.806 249.785 95.4427L249.912 95.3216C250.293 95.0189 250.632 94.696 250.949 94.3933L251.203 94.1512C251.711 93.6668 252.241 93.1623 252.685 92.678L252.939 92.3753C253.257 92.0726 253.511 91.7497 253.849 91.3865L254.103 91.0837C254.23 90.9021 254.548 90.5389 254.548 90.5389L254.802 90.1555C255.268 89.6106 255.712 89.0052 256.22 88.2585C256.665 87.7136 257.003 87.2091 257.321 86.6643L257.702 86.1194C258.019 85.4938 258.675 84.3435 259.12 83.3547C259.501 82.608 259.056 81.7604 258.21 81.6393L236.916 77.9463C236.471 77.8858 236.006 78.0674 235.688 78.4508C231.899 83.1125 226.481 85.4938 220.766 85.4938C214.013 85.4938 207.896 82.0631 204.488 76.5337C203.959 75.7467 204.615 74.6973 205.568 74.6973H261.237C261.893 74.6973 262.401 74.2735 262.528 73.6479C262.909 71.3877 263.184 68.8046 263.184 66.6049L262.972 67.0287ZM237.043 57.9476H206.796C206.034 57.9476 205.441 57.2816 205.568 56.5349C206.669 50.8844 214.077 46.6062 221.93 46.6062C230.545 46.6062 237.36 50.945 238.334 56.5349C238.461 57.2816 237.826 57.9476 237.043 57.9476Z" fill="white"/>
<path d="M355.407 28.0605H333.203C332.483 28.0605 331.912 28.6256 331.912 29.2915V31.6325C331.912 32.1168 331.404 32.3589 330.938 32.1168C324.631 28.6861 317.434 26.9102 310.026 26.9102C286.721 26.9102 267.798 44.6892 267.798 66.605C267.798 88.5209 286.784 106.3 310.026 106.3C317.37 106.3 324.567 104.524 330.938 101.094C331.404 100.831 331.912 101.094 331.912 101.578V102.688C331.912 103.354 332.483 103.899 333.203 103.899H355.407C356.106 103.899 356.677 103.354 356.677 102.688V29.2915C356.677 28.6256 356.106 28.0605 355.407 28.0605ZM313.814 84.8279C303.146 84.8279 294.447 76.6549 294.447 66.605C294.447 56.5552 303.146 48.3822 313.814 48.3822C324.482 48.3822 331.912 56.535 331.912 66.605C331.912 76.6751 324.504 84.8279 313.814 84.8279Z" fill="white"/>
<path d="M438.424 60.1059V102.747C438.424 103.413 437.852 103.978 437.133 103.978H413.447C412.749 103.978 412.156 103.434 412.156 102.747V61.2763C412.156 58.4511 411.965 55.2626 410.738 52.6189C410.166 51.509 409.447 50.6009 408.494 49.9148C407.012 48.8048 405.086 48.26 402.631 48.26C398.059 48.26 394.524 49.7331 393.36 52.1951C392.069 54.8388 392.069 58.3905 392.069 61.2763V102.747C392.069 103.413 391.497 103.978 390.778 103.978H367.092C366.393 103.978 365.801 103.434 365.801 102.747V29.351C365.801 28.685 366.372 28.12 367.092 28.12H389.296C389.994 28.12 390.587 28.6648 390.587 29.351V31.369C390.587 31.8533 391.159 32.1762 391.561 31.8533C409.447 20.1285 426.888 33.1449 427.079 33.2659C427.714 33.7503 428.306 34.2548 428.878 34.7391C436.985 42.5287 438.339 48.7847 438.339 59.9646L438.403 60.0857L438.424 60.1059Z" fill="white"/>
</g>
<path d="M38.7999 119.924L43.1046 168.548L26.0774 217.173C26.0774 217.839 25.5059 218.404 24.7863 218.404H1.29114C0.592638 218.404 0 217.859 0 217.173L12.7225 119.924C12.7225 119.258 13.294 118.693 14.0136 118.693H37.5088C38.2073 118.693 38.7999 119.238 38.7999 119.924Z" fill="white"/>
<path d="M123.843 181.454C123.843 177.66 123.272 173.846 122.108 170.234C121.219 167.408 119.927 164.644 118.382 162L117.599 160.769C117.409 160.527 117.028 159.921 117.028 159.921L116.583 159.235C116.393 158.872 116.117 158.569 115.863 158.206C115.546 157.823 115.228 157.399 114.911 157.036L114.657 156.733C114.382 156.349 114.128 156.047 113.81 155.744L113.62 155.502L113.175 155.865L113.556 155.381C113.112 154.896 112.583 154.392 112.075 153.908L111.821 153.665C111.44 153.363 111.101 153.04 110.783 152.737L110.656 152.616C110.275 152.253 109.831 151.89 109.365 151.506L109.048 151.264C108.476 150.84 107.884 150.416 107.312 149.972L106.931 149.609H106.804C106.084 149.185 105.386 148.681 104.666 148.197H104.603C103.904 147.773 102.74 147.087 102.042 146.723C101.83 146.602 101.449 146.421 101.449 146.421L101.131 146.905L101.385 146.3H101.258C100.941 146.179 100.623 145.997 100.221 145.735H100.031C99.3322 145.432 98.6125 145.129 97.914 144.766H97.7235C97.3425 144.584 96.8769 144.463 96.4324 144.282C96.3054 144.201 96.1149 144.08 95.9879 144.08C95.4587 143.898 94.9507 143.717 94.3792 143.535H94.2522C93.723 143.353 93.088 143.232 92.453 143.051L91.9238 142.93C90.6962 142.667 89.5532 142.425 88.3255 142.183H87.8175C86.5898 142.001 85.2986 141.941 84.0075 141.82H79.1179C78.6734 141.88 78.1654 141.941 77.6998 141.941H77.1918C76.4933 142.062 75.9006 142.122 75.3291 142.183H75.2021C74.6094 142.304 73.7204 142.425 73.1912 142.607H72.8737C72.4292 142.667 71.9847 142.808 71.5191 142.93H71.3921C71.2651 143.051 71.1381 143.051 71.0111 143.051C70.4396 143.232 69.7834 143.353 69.2119 143.535C68.6404 143.717 68.0477 143.898 67.4762 144.08C67.3492 144.14 67.0952 144.282 67.0952 144.282H66.9682C66.5026 144.403 66.0581 144.584 65.6771 144.766H65.5501C65.4231 144.766 65.2749 144.887 65.1479 144.887C64.6399 145.129 64.0684 145.371 63.4757 145.613C62.9677 145.876 62.3962 146.179 61.867 146.421C61.74 146.481 61.486 146.663 61.486 146.663H61.359C60.978 146.844 60.597 147.026 60.1948 147.268L59.7504 147.531C59.2424 147.833 58.7132 148.136 58.2052 148.439C53.1887 151.627 48.8706 155.926 45.7168 160.769C45.3993 161.273 45.1453 161.758 44.8278 162.242L44.4256 162.928L44.2351 163.292L44.0446 163.655L43.9176 163.978C43.8541 164.099 43.7271 164.22 43.7271 164.341C43.4731 164.886 43.2191 165.37 42.9439 165.935C42.4994 166.843 42.1185 167.832 41.7375 168.942C40.5733 172.312 39.8536 175.803 39.6631 179.315V183.351C39.7266 185.389 40.0018 187.347 40.4463 189.304C40.5733 189.93 40.7003 190.596 40.8908 191.221C41.0813 192.008 41.3353 192.815 41.6739 193.724C42.3089 195.439 43.0074 197.094 43.7906 198.627C43.8541 198.769 43.9811 199.011 43.9811 199.011L44.1081 199.253C44.2986 199.677 44.4891 200.04 44.7643 200.484L44.8913 200.666C45.1453 201.089 45.3993 201.453 45.6533 201.897C48.8071 206.74 53.1252 211.038 58.1417 214.227C58.6497 214.53 59.1789 214.832 59.6869 215.135L60.1313 215.377C60.5123 215.579 60.9145 215.821 61.2955 216.063H61.4225C61.5495 216.124 61.6765 216.184 61.8035 216.245C62.3962 216.548 62.9042 216.79 63.4122 217.052C63.9414 217.294 64.5129 217.536 65.0844 217.779C65.2114 217.839 65.4865 217.96 65.4865 217.96H65.6136C66.0581 218.081 66.439 218.263 66.8835 218.465H67.0317C67.1587 218.465 67.2857 218.586 67.4127 218.586C67.9842 218.767 68.5769 218.949 69.1484 219.131C69.6564 219.312 70.3126 219.433 70.9476 219.615C71.0746 219.615 71.3286 219.736 71.3286 219.736H71.4556C71.9212 219.857 72.3657 219.918 72.8102 220.059L73.4029 220.18C73.9109 220.301 74.4189 220.362 74.9481 220.483H75.2656C75.8371 220.604 76.4086 220.664 77.1283 220.725H77.6363C78.1019 220.785 78.6099 220.846 79.0544 220.846H81.5733C82.1448 220.846 82.7163 220.785 83.4995 220.785H83.944C85.1716 220.725 86.4628 220.604 87.754 220.362H88.1985C89.3627 220.18 90.5692 219.998 91.7968 219.675L92.3049 219.554C93.0245 219.373 93.596 219.191 94.1887 219.01H94.3157C94.8872 218.888 95.3952 218.707 95.9244 218.525L96.4324 218.323C96.8769 218.142 97.3425 218.021 97.787 217.779H97.914C98.549 217.476 99.2687 217.173 100.031 216.729H100.221C100.56 216.608 100.877 216.426 101.258 216.184H101.385C101.576 216.063 101.978 215.882 101.978 215.882L102.232 215.76C102.994 215.317 103.841 214.893 104.603 214.408L104.793 214.287C105.449 213.843 106.148 213.42 106.804 212.935L107.249 212.572C107.82 212.189 108.413 211.765 108.984 211.28L108.603 210.836L109.111 211.22L109.492 210.836C109.894 210.534 110.275 210.231 110.656 209.868L110.783 209.747C111.164 209.444 111.503 209.121 111.821 208.818L112.075 208.576C112.583 208.092 113.112 207.587 113.556 207.103L113.81 206.8C114.128 206.498 114.382 206.175 114.72 205.812L114.974 205.509C115.101 205.327 115.419 204.964 115.419 204.964L115.673 204.581C116.117 204.036 116.583 203.43 117.091 202.684C117.536 202.139 117.874 201.634 118.192 201.089L118.573 200.544C118.89 199.919 119.546 198.769 119.991 197.78C120.372 197.033 119.927 196.186 119.081 196.064L97.787 192.371C97.3425 192.311 96.8769 192.493 96.5594 192.876C92.7705 197.538 87.3518 199.919 81.6368 199.919C74.8846 199.919 68.7674 196.488 65.3595 190.959C64.8304 190.172 65.4866 189.122 66.4391 189.122H122.108C122.764 189.122 123.272 188.699 123.399 188.073C123.78 185.813 124.034 183.23 124.034 181.03L123.843 181.454ZM97.914 172.373H67.6667C66.8836 172.373 66.3121 171.707 66.4391 170.96C67.5397 165.31 74.9481 161.031 82.7798 161.031C91.4159 161.031 98.2315 165.37 99.2052 170.96C99.3322 171.707 98.6972 172.373 97.914 172.373Z" fill="white"/>
<path d="M216.277 142.486H194.073C193.354 142.486 192.782 143.052 192.782 143.717V146.058C192.782 146.543 192.253 146.785 191.808 146.543C185.437 143.112 178.304 141.336 170.896 141.336C147.591 141.336 128.668 159.115 128.668 181.031C128.668 202.947 147.591 220.726 170.896 220.726C178.24 220.726 185.437 218.95 191.808 215.519C192.253 215.257 192.782 215.519 192.782 216.004V217.114C192.782 217.779 193.354 218.324 194.073 218.324H216.277C216.976 218.324 217.547 217.779 217.547 217.114V143.717C217.547 143.052 216.976 142.486 216.277 142.486ZM174.684 199.254C164.016 199.254 155.317 191.081 155.317 181.031C155.317 170.981 164.016 162.808 174.684 162.808C185.353 162.808 192.782 170.961 192.782 181.031C192.782 191.101 185.374 199.254 174.684 199.254Z" fill="white"/>
<path d="M311.315 118.633H289.111C288.412 118.633 287.841 119.178 287.841 119.844V146.058C287.841 146.543 287.312 146.785 286.867 146.543C280.559 143.112 273.363 141.336 265.954 141.336C242.65 141.336 223.727 159.115 223.727 181.031C223.727 202.947 242.713 220.726 265.954 220.726C273.299 220.726 280.496 218.95 286.867 215.519C287.312 215.257 287.841 215.519 287.841 216.004V217.114C287.841 217.78 288.412 218.324 289.111 218.324H311.315C312.034 218.324 312.606 217.78 312.606 217.114V119.844C312.606 119.178 312.034 118.633 311.315 118.633ZM269.743 199.254C259.075 199.254 250.376 191.081 250.376 181.031C250.376 170.981 259.075 162.808 269.743 162.808C280.411 162.808 287.841 170.961 287.841 181.031C287.841 191.101 280.432 199.254 269.743 199.254Z" fill="white"/>
<path d="M370.456 163.654C371.048 164.22 371.281 165.047 371.091 165.834C370.9 166.702 370.181 167.368 369.27 167.569C369.101 167.61 368.911 167.63 368.72 167.63C368.085 167.63 367.471 167.388 367.006 166.944C366.413 166.379 366.159 165.572 366.349 164.785C366.561 163.917 367.26 163.231 368.17 163.049C368.995 162.867 369.863 163.089 370.456 163.654Z" fill="white"/>
<path d="M382.692 195.763C382.502 198.386 381.803 201.211 380.576 204.158C375.813 213.784 364.87 219.555 351.175 219.555C349.291 219.555 347.302 219.434 345.375 219.253C339.195 218.587 333.861 216.992 329.416 214.591C324.844 211.645 321.309 207.467 318.98 202.261C318.663 201.514 319.107 200.727 319.891 200.606L341.65 196.126C342.158 196.005 342.666 196.247 342.984 196.61C344.529 198.77 347.111 199.859 348.529 199.98C351.874 200.364 353.609 199.496 354.456 198.77C355.345 197.962 355.726 196.913 355.535 195.763C355.218 193.119 353.546 191.888 345.121 188.074H344.994C343.322 187.287 341.248 186.298 338.877 185.208C337.269 184.522 335.723 183.856 334.242 183.049H334.115C334.115 183.049 333.734 182.746 333.458 182.625C325.881 178.508 321.499 173.484 320.335 167.651C318.726 159.357 324.336 152.375 325.415 151.023C327.087 149.186 329.098 147.592 331.278 146.301C337.903 142.244 346.413 140.59 355.281 141.578C360.637 142.184 365.463 143.536 369.632 145.614C371.622 146.603 373.506 147.834 375.115 149.126C376.533 150.256 377.612 151.507 378.417 152.859C355.641 150.498 341.29 150.902 338.39 153.021C338.009 153.283 337.819 153.586 337.776 153.909C337.438 156.976 344 164.039 347.598 167.429H347.979C348.466 167.45 348.931 167.51 349.376 167.55H349.524C350.667 167.712 351.598 167.873 352.445 168.075C354.371 168.519 356.255 169.084 358.012 169.73C358.435 169.871 358.88 170.033 359.388 170.234L360.721 170.759C361.589 171.143 362.478 171.506 363.346 171.889L364.235 172.313C364.806 172.575 365.357 172.838 365.928 173.12L368.447 174.392C368.849 174.593 369.019 175.078 368.828 175.461C368.616 175.865 368.108 176.046 367.664 175.845L365.124 174.694C364.552 174.452 364.002 174.23 363.452 173.988L362.542 173.605C361.674 173.282 360.806 172.939 359.938 172.616L358.605 172.172C358.118 171.99 357.694 171.869 357.292 171.748C355.578 171.203 353.779 170.739 351.937 170.396C351.154 170.255 350.286 170.134 349.249 170.053H348.931C348.931 170.053 348.783 170.093 348.762 170.113C348.741 170.154 348.698 170.214 348.741 170.295C351.302 174.896 359.642 182.464 374.755 188.659C374.776 188.679 374.797 188.7 374.818 188.7C377.358 189.688 379.983 190.596 382.375 191.384C382.375 191.525 382.375 191.646 382.354 191.787C382.565 192.998 382.65 194.269 382.565 195.621L382.692 195.763Z" fill="white"/>
</svg>
